<?xml version="1.0" encoding="UTF-8" standalone="no"?>
<!-- Svg Vector Icons : http://www.onlinewebfonts.com/icon -->

<svg
   xmlns:dc="http://purl.org/dc/elements/1.1/"
   xmlns:cc="http://creativecommons.org/ns#"
   xmlns:rdf="http://www.w3.org/1999/02/22-rdf-syntax-ns#"
   xmlns:svg="http://www.w3.org/2000/svg"
   xmlns="http://www.w3.org/2000/svg"
   xmlns:sodipodi="http://sodipodi.sourceforge.net/DTD/sodipodi-0.dtd"
   xmlns:inkscape="http://www.inkscape.org/namespaces/inkscape"
   version="1.1"
   x="0px"
   y="0px"
   viewBox="0 0 1000 1000"
   enable-background="new 0 0 1000 1000"
   xml:space="preserve"
   id="svg2"
   inkscape:version="0.91 r13725"
   sodipodi:docname="img_42641.svg"><defs
     id="defs48" /><sodipodi:namedview
     pagecolor="#ffffff"
     bordercolor="#666666"
     borderopacity="1"
     objecttolerance="10"
     gridtolerance="10"
     guidetolerance="10"
     inkscape:pageopacity="0"
     inkscape:pageshadow="2"
     inkscape:window-width="1920"
     inkscape:window-height="1017"
     id="namedview46"
     showgrid="false"
     inkscape:zoom="0.236"
     inkscape:cx="500"
     inkscape:cy="500"
     inkscape:window-x="-8"
     inkscape:window-y="-8"
     inkscape:window-maximized="1"
     inkscape:current-layer="svg2" /><metadata
     id="metadata4"> Svg Vector Icons : http://www.onlinewebfonts.com/icon <rdf:RDF><cc:Work
     rdf:about=""><dc:format>image/svg+xml</dc:format><dc:type
       rdf:resource="http://purl.org/dc/dcmitype/StillImage" /></cc:Work></rdf:RDF></metadata><g
     id="g6"><g
       id="g8"><g
         id="g10"><path
           d="M500,177.8c-177.7,0-322.3,144.6-322.3,322.3c0,177.7,144.6,322.3,322.3,322.3c177.7,0,322.3-144.6,322.3-322.3C822.3,322.4,677.7,177.8,500,177.8z M500,744.2c-134.6,0-244.1-109.6-244.1-244.1c0-134.6,109.6-244.1,244.1-244.1c134.6,0,244.2,109.6,244.2,244.1C744.2,634.7,634.6,744.2,500,744.2z"
           id="path12" /><path
           d="M500,10C229.8,10,10,229.8,10,500c0,270.1,219.8,490,490,490c270.2,0,490-219.8,490-490C990,229.8,770.2,10,500,10z M500,911.9C272.9,911.9,88.1,727.2,88.1,500C88.1,272.9,272.9,88.2,500,88.2c227.1,0,411.8,184.7,411.8,411.8C911.8,727.1,727.1,911.9,500,911.9z"
           id="path14" /></g></g><g
       id="g16" /><g
       id="g18" /><g
       id="g20" /><g
       id="g22" /><g
       id="g24" /><g
       id="g26" /><g
       id="g28" /><g
       id="g30" /><g
       id="g32" /><g
       id="g34" /><g
       id="g36" /><g
       id="g38" /><g
       id="g40" /><g
       id="g42" /><g
       id="g44" /><path
       style="opacity:1;fill:#00ffff;fill-opacity:1;stroke-width:2.06200004;stroke-miterlimit:4;stroke-dasharray:none"
       d="M 453.85733,985.40797 C 404.30337,980.9864 341.91304,963.70237 294.59412,941.28716 162.85547,878.88199 66.422653,763.92233 27.857839,623.30508 17.10461,584.09606 16.230352,574.92089 16.149021,500.42373 16.067959,426.17337 16.944578,416.65838 27.426406,378.01674 107.97802,81.060284 433.77992,-71.304898 707.75691,59.851987 953.73453,177.60517 1056.3323,464.95691 939.52678,708.9839 c -24.84886,51.91356 -47.64945,84.70449 -88.44453,127.19763 -72.62026,75.64292 -154.32467,121.25572 -251.46394,140.38381 -51.80793,10.20169 -98.66895,13.04453 -145.76098,8.84263 z m 115.29102,-78.06801 c 158.08466,-27.6856 280.50178,-136.95513 328.70983,-293.4064 10.67034,-34.62873 11.47453,-42.58424 11.47453,-113.50983 0,-71.30544 -0.76335,-78.75406 -11.72457,-114.40678 C 853.5472,242.70314 745.05962,136.91281 603.74483,99.459737 562.34106,88.486369 480.91839,84.434538 437.28814,91.17636 391.45213,98.259017 328.07209,121.15109 288.26612,145.00125 247.70137,169.30603 190.08325,222.10095 163.56354,259.265 32.68976,442.66818 73.463521,698.40945 255.03887,833.01682 c 48.91124,36.25941 129.15248,69.23326 188.6052,77.50428 29.94657,4.16615 92.62237,2.5775 125.50428,-3.18114 z"
       id="path3376"
       inkscape:connector-curvature="0" /><path
       style="opacity:1;fill:#000080;fill-opacity:1;stroke-width:2.06200004;stroke-miterlimit:4;stroke-dasharray:none"
       d="M 437.28814,813.79292 C 298.7181,784.24818 200.17055,676.09606 182.13034,533.76707 169.95276,437.69145 210.17407,331.51363 283.9815,264.89633 c 66.18998,-59.74192 142.21947,-87.04988 231.69647,-83.2198 141.34,6.0501 259.49322,103.17287 294.51627,242.0945 11.36356,45.07424 11.37733,108.13014 0.0339,153.3054 -24.28221,96.70103 -98.55454,182.16963 -190.92085,219.70141 -56.0653,22.78123 -124.8271,29.20907 -182.01915,17.01508 z m 124.77839,-76.20135 c 39.75406,-10.35462 81.97911,-34.9378 112.52995,-65.51432 95.54377,-95.62395 94.77136,-249.1193 -1.73754,-345.2838 -49.61703,-49.43999 -106.40883,-72.08616 -178.36741,-71.12539 -67.91782,0.90682 -125.28981,26.67065 -173.73724,78.01956 -56.35757,59.73279 -78.2369,142.54673 -59.10532,223.7154 19.97038,84.7274 89.8555,157.11791 173.97841,180.21554 28.77373,7.90042 96.05887,7.88606 126.43915,-0.0254 l 0,-0.002 z"
       id="path3378"
       inkscape:connector-curvature="0" /><path
       style="opacity:1;fill:#000080;fill-opacity:1;stroke-width:2.06200004;stroke-miterlimit:4;stroke-dasharray:none"
       d="M 423.65333,979.22322 C 238.70883,948.11225 88.519678,814.71809 31.884483,631.26415 20.733826,595.1447 20.266636,589.92559 20.172282,500.42373 20.077073,410.11113 20.443785,406.01459 31.928847,369.09109 82.240928,207.34205 200.31308,86.714131 356.77966,37.208608 413.41297,19.290013 458.23309,13.646061 521.6247,16.450579 c 138.72339,6.137285 266.85683,70.737082 355.16233,179.058781 38.19789,46.85619 76.74644,122.07857 93.28492,182.03301 10.93593,39.64431 11.66941,47.55717 11.39042,122.88136 -0.25466,68.77106 -1.63068,85.34563 -9.43788,113.68716 -23.70034,86.03648 -60.79224,153.87504 -116.26707,212.64475 -42.91509,45.46402 -85.38373,79.09813 -130.33369,103.22105 -85.23496,45.74238 -205.71809,65.40424 -301.7704,49.24653 z m 159.87625,-73.65767 c 137.45945,-28.37131 253.09873,-126.21229 303.43161,-256.72983 21.99182,-57.02665 25.93245,-84.46945 23.745,-165.36114 -1.8417,-68.105 -2.69835,-74.11391 -15.70568,-110.1695 -7.56674,-20.97457 -18.55543,-47.66949 -24.41932,-59.32203 C 827.38568,228.14619 742.99178,150.36136 654.10271,114.45747 606.64254,95.287458 581.50907,90.74053 511.44068,88.648305 448.92377,86.781564 440.41771,87.458013 402.21462,97.334572 353.56533,109.91176 292.15244,138.11861 259.32203,162.96492 c -34.34306,25.9911 -83.24331,75.47522 -102.67844,103.90443 -23.51854,34.40232 -47.35697,86.87949 -58.936425,129.74082 -13.570241,50.23021 -13.76514,155.16941 -0.378898,204.01025 36.829123,134.37411 123.556063,233.37615 248.139263,283.26017 57.30626,22.94581 88.53785,29.19399 146.90535,29.38975 35.75865,0.11991 65.37335,-2.38318 91.1567,-7.70479 z"
       id="path3380"
       inkscape:connector-curvature="0" /><path
       style="opacity:1;fill:#00ffff;fill-opacity:1;stroke-width:2.06200004;stroke-miterlimit:4;stroke-dasharray:none"
       d="M 456.07057,815.76169 C 391.83958,806.07881 329.82147,775.63513 282.22639,730.42445 216.4645,667.95708 183.14767,589.82785 183.08053,497.92357 182.96327,337.40769 305.21416,201.19719 463.57985,185.39453 c 162.1235,-16.17764 302.26418,80.07955 344.87977,236.8845 10.14623,37.33315 10.15585,118.80498 0.017,156.53453 -29.75488,110.74297 -119.75996,200.92936 -227.98697,228.44636 -39.09966,9.94118 -91.23919,13.50394 -124.4206,8.50177 l 0.002,0 z M 562.06653,737.59157 C 619.48703,722.63542 682.3228,676.16441 710.77716,627.61076 769.02962,528.21046 753.7311,407.2458 672.72517,326.73549 621.94839,276.26941 572.52408,256.23635 498.72881,256.20992 c -71.92629,-0.0258 -127.87039,24.37285 -178.20112,77.71791 -70.92602,75.17383 -85.86405,182.31905 -38.84727,278.63776 26.3781,54.03822 93.33157,109.06835 151.84639,124.80496 30.57931,8.22381 97.37396,8.33864 128.53972,0.22119 l 0,-1.7e-4 z"
       id="path3382"
       inkscape:connector-curvature="0" /></g><path
     style="opacity:1;fill:#916f6f;fill-opacity:1;stroke-width:2.06200004;stroke-miterlimit:4;stroke-dasharray:none"
     d="M 421.7115,727.65737 C 254.48569,669.44598 203.77165,457.68697 327.11864,332.68024 376.4403,282.69492 431.56016,259.52077 500.84746,259.6391 c 127.69469,0.21807 231.3197,97.71682 240.15178,225.95412 7.38385,107.20994 -62.15102,208.50343 -167.87291,244.54542 -42.85929,14.61132 -105.24956,13.5889 -151.41483,-2.48127 z"
     id="path3384"
     inkscape:connector-curvature="0" /><path
     style="opacity:1;fill:#c4f0fc;fill-opacity:1;stroke-width:2.06200004;stroke-miterlimit:4;stroke-dasharray:none"
     d="M 426.69492,903.07949 C 225.23276,865.87398 78.225796,679.33483 91.259667,477.44115 102.63735,301.20175 216.7625,158.53859 388.55932,105.79908 423.87137,94.958711 432.02827,94.094909 498.72881,94.132319 c 60.43407,0.0339 77.28687,1.496196 104.65454,9.080771 154.85385,42.91569 270.50267,168.514 300.32123,326.15846 7.60656,40.21442 2.84572,139.50383 -8.57424,178.81798 -19.85292,68.34551 -51.22284,122.40725 -101.87055,175.56005 -92.84432,97.43648 -234.83102,143.65817 -366.56487,119.32991 z m 156.77966,-89.23275 c 37.89906,-10.03547 90.305,-37.32572 122.20389,-63.63746 151.46276,-124.93352 157.07628,-358.64281 11.76454,-489.79496 -65.77348,-59.36431 -145.77026,-87.55367 -235.66335,-83.04333 -140.8086,7.065 -263.65267,109.36213 -297.26969,247.54827 -9.67836,39.78386 -9.45333,113.16066 0.46547,151.77566 32.55511,126.74076 133.45808,220.04516 263.58281,243.73351 28.5397,5.19547 104.41912,1.49382 134.91633,-6.58169 z"
     id="path3386"
     inkscape:connector-curvature="0" /><path
     style="opacity:1;fill:#552200;fill-opacity:1;stroke-width:2.06200004;stroke-miterlimit:4;stroke-dasharray:none"
     d="M 459.94359,735.45216 C 370.3915,719.42258 296.24973,653.55969 270.65838,567.30306 c -24.98434,-84.21071 -1.41661,-173.13361 62.62535,-236.29039 75.19816,-74.15879 179.45872,-90.11419 276.57552,-42.32545 57.05137,28.07355 105.00973,88.17346 121.80011,152.63609 8.29789,31.85782 8.29242,86.364 -0.0127,118.24638 -19.37356,74.38003 -86.14896,145.25154 -157.87851,167.56294 -31.90421,9.92377 -83.70929,13.71021 -113.8254,8.31953 l 8.5e-4,0 z"
     id="path3388"
     inkscape:connector-curvature="0" /></svg>